<?xml version="1.0" standalone="no"?>
<!DOCTYPE svg PUBLIC "-//W3C//DTD SVG 20010904//EN"
 "http://www.w3.org/TR/2001/REC-SVG-20010904/DTD/svg10.dtd">
<svg version="1.0" xmlns="http://www.w3.org/2000/svg"
 width="381.000000pt" height="366.000000pt" viewBox="0 0 381.000000 366.000000"
 preserveAspectRatio="xMidYMid meet">

<g transform="translate(0.000000,366.000000) scale(0.100000,-0.100000)"
fill="#000000" stroke="none">
<path d="M1897 3580 c-4 -19 -12 -64 -18 -100 -35 -214 -109 -434 -214 -645
-97 -193 -182 -312 -325 -456 -293 -295 -690 -474 -1195 -541 l-100 -13 86 -7
c121 -10 352 -61 494 -108 141 -48 372 -160 478 -233 409 -282 677 -733 778
-1311 11 -60 21 -111 22 -112 2 -2 9 36 16 84 33 232 116 488 229 706 104 201
218 350 383 500 265 241 689 420 1112 470 l112 13 -60 7 c-428 53 -791 188
-1070 400 -380 288 -640 778 -718 1356 -3 22 -4 20 -10 -10z"/>
</g>
</svg>
